<svg xmlns="http://www.w3.org/2000/svg" xmlns:xlink="http://www.w3.org/1999/xlink" width="500" zoomAndPan="magnify" viewBox="0 0 375 374.999991" height="500" preserveAspectRatio="xMidYMid meet" version="1.0"><defs><g/></defs><g fill="#ffffff" fill-opacity="1"><g transform="translate(109.216586, 223.874985)"><g><path d="M 11.734375 0 L 6.125 0 C 5.25 0 4.8125 -0.398438 4.8125 -1.203125 L 4.8125 -24.671875 C 4.8125 -25.546875 5.25 -25.984375 6.125 -25.984375 L 12.4375 -25.984375 C 13.238281 -25.984375 13.640625 -25.546875 13.640625 -24.671875 L 13.640625 -22.5625 C 13.640625 -21.300781 14.40625 -19.613281 15.9375 -17.5 C 17.476562 -15.394531 19.019531 -13.671875 20.5625 -12.328125 C 22.101562 -10.992188 24.160156 -9.84375 26.734375 -8.875 C 29.304688 -7.90625 32.097656 -7.421875 35.109375 -7.421875 C 40.253906 -7.421875 44.28125 -8.488281 47.1875 -10.625 C 50.101562 -12.769531 51.5625 -15.75 51.5625 -19.5625 C 51.5625 -21.769531 50.738281 -23.65625 49.09375 -25.21875 C 47.457031 -26.789062 45.335938 -28.046875 42.734375 -28.984375 C 40.128906 -29.921875 37.238281 -30.789062 34.0625 -31.59375 C 30.882812 -32.394531 27.707031 -33.3125 24.53125 -34.34375 C 21.351562 -35.382812 18.457031 -36.625 15.84375 -38.0625 C 13.238281 -39.5 11.113281 -41.503906 9.46875 -44.078125 C 7.832031 -46.660156 7.015625 -49.691406 7.015625 -53.171875 C 7.015625 -58.785156 9.140625 -63.429688 13.390625 -67.109375 C 17.640625 -70.785156 23.34375 -72.625 30.5 -72.625 C 39.519531 -72.625 46.140625 -69.984375 50.359375 -64.703125 L 50.15625 -70.921875 C 50.15625 -71.722656 50.585938 -72.125 51.453125 -72.125 L 57.078125 -72.125 C 57.878906 -72.125 58.28125 -71.722656 58.28125 -70.921875 L 58.28125 -49.046875 C 58.28125 -48.242188 57.878906 -47.84375 57.078125 -47.84375 L 50.765625 -47.84375 C 49.953125 -47.84375 49.546875 -48.242188 49.546875 -49.046875 L 49.546875 -51.859375 C 49.546875 -54.597656 48.007812 -57.375 44.9375 -60.1875 C 41.863281 -63 37.347656 -64.40625 31.390625 -64.40625 C 26.984375 -64.40625 23.425781 -63.347656 20.71875 -61.234375 C 18.007812 -59.128906 16.65625 -56.441406 16.65625 -53.171875 C 16.65625 -50.828125 17.488281 -48.816406 19.15625 -47.140625 C 20.832031 -45.472656 23.003906 -44.132812 25.671875 -43.125 C 28.347656 -42.125 31.289062 -41.207031 34.5 -40.375 C 37.71875 -39.539062 40.929688 -38.617188 44.140625 -37.609375 C 47.347656 -36.609375 50.289062 -35.40625 52.96875 -34 C 55.644531 -32.601562 57.816406 -30.679688 59.484375 -28.234375 C 61.160156 -25.796875 62 -22.90625 62 -19.5625 C 62 -13.675781 59.890625 -8.828125 55.671875 -5.015625 C 51.460938 -1.203125 45.175781 0.703125 36.8125 0.703125 C 30.65625 0.703125 25.570312 -0.53125 21.5625 -3 C 17.550781 -5.476562 14.644531 -8.15625 12.84375 -11.03125 L 12.9375 -1.203125 C 12.9375 -0.398438 12.535156 0 11.734375 0 Z M 11.734375 0 "/></g></g></g><g fill="#ffffff" fill-opacity="1"><g transform="translate(181.032274, 223.874985)"><g><path d="M 69.921875 -18.15625 C 70.253906 -17.882812 70.421875 -17.566406 70.421875 -17.203125 C 70.421875 -16.835938 70.269531 -16.335938 69.96875 -15.703125 C 69.664062 -15.066406 69.160156 -14.226562 68.453125 -13.1875 C 67.753906 -12.15625 66.503906 -10.734375 64.703125 -8.921875 C 62.898438 -7.117188 60.925781 -5.566406 58.78125 -4.265625 C 56.644531 -2.960938 53.820312 -1.804688 50.3125 -0.796875 C 46.800781 0.203125 43.035156 0.703125 39.015625 0.703125 C 29.253906 0.703125 21.113281 -2.707031 14.59375 -9.53125 C 8.070312 -16.351562 4.8125 -25.296875 4.8125 -36.359375 C 4.8125 -47.429688 8.101562 -56.242188 14.6875 -62.796875 C 21.28125 -69.347656 29.222656 -72.625 38.515625 -72.625 C 48.878906 -72.625 56.40625 -69.046875 61.09375 -61.890625 L 60.984375 -70.828125 C 60.859375 -71.628906 61.257812 -72.03125 62.1875 -72.03125 L 67.8125 -72.03125 C 68.675781 -72.03125 69.109375 -71.628906 69.109375 -70.828125 L 69.109375 -48.953125 C 69.109375 -48.078125 68.675781 -47.640625 67.8125 -47.640625 L 61.484375 -47.640625 C 60.679688 -47.640625 60.28125 -48.078125 60.28125 -48.953125 L 60.28125 -49.859375 C 60.28125 -52.929688 58.191406 -56.125 54.015625 -59.4375 C 49.835938 -62.75 44.640625 -64.40625 38.421875 -64.40625 C 32.203125 -64.40625 26.597656 -61.945312 21.609375 -57.03125 C 16.628906 -52.113281 14.140625 -45.15625 14.140625 -36.15625 C 14.140625 -27.164062 16.644531 -20.175781 21.65625 -15.1875 C 26.675781 -10.207031 32.566406 -7.71875 39.328125 -7.71875 C 46.609375 -7.71875 52.359375 -9.359375 56.578125 -12.640625 C 59.847656 -15.179688 62.253906 -17.753906 63.796875 -20.359375 C 64.328125 -21.367188 64.960938 -21.570312 65.703125 -20.96875 Z M 69.921875 -18.15625 "/></g></g></g></svg>